<mxfile host="app.diagrams.net" modified="2021-11-09T07:18:35.454Z" agent="5.0 (Windows)" etag="GGEHE5EG_dwSKACjM96n" version="15.7.0" type="github">
  <diagram id="dkUiS59BBGbl0RJkbHyD" name="Page-1">
    <mxGraphModel dx="1422" dy="709" grid="1" gridSize="10" guides="1" tooltips="1" connect="1" arrows="1" fold="1" page="1" pageScale="1" pageWidth="1100" pageHeight="850" math="0" shadow="0">
      <root>
        <mxCell id="0" />
        <mxCell id="1" parent="0" />
        <mxCell id="vRdFM8mdRWxYOnKqkBIo-1" value="Member Press based WP page" style="rounded=0;whiteSpace=wrap;html=1;" vertex="1" parent="1">
          <mxGeometry x="110" y="120" width="120" height="60" as="geometry" />
        </mxCell>
        <mxCell id="vRdFM8mdRWxYOnKqkBIo-6" value="" style="endArrow=classic;html=1;rounded=0;exitX=1;exitY=0.5;exitDx=0;exitDy=0;" edge="1" parent="1" source="vRdFM8mdRWxYOnKqkBIo-1">
          <mxGeometry width="50" height="50" relative="1" as="geometry">
            <mxPoint x="230" y="175" as="sourcePoint" />
            <mxPoint x="300" y="150" as="targetPoint" />
          </mxGeometry>
        </mxCell>
        <mxCell id="vRdFM8mdRWxYOnKqkBIo-7" value="&lt;h1&gt;Subscrition&lt;/h1&gt;&lt;p&gt;Click on Buy&lt;span style=&quot;white-space: pre&quot;&gt;	&lt;/span&gt;&lt;br&gt;&lt;/p&gt;" style="text;html=1;strokeColor=none;fillColor=none;spacing=5;spacingTop=-20;whiteSpace=wrap;overflow=hidden;rounded=0;" vertex="1" parent="1">
          <mxGeometry x="300" y="120" width="140" height="70" as="geometry" />
        </mxCell>
        <mxCell id="vRdFM8mdRWxYOnKqkBIo-9" value="" style="endArrow=classic;html=1;rounded=0;exitX=1;exitY=0.5;exitDx=0;exitDy=0;" edge="1" parent="1">
          <mxGeometry width="50" height="50" relative="1" as="geometry">
            <mxPoint x="440" y="150" as="sourcePoint" />
            <mxPoint x="510" y="150" as="targetPoint" />
          </mxGeometry>
        </mxCell>
        <mxCell id="vRdFM8mdRWxYOnKqkBIo-12" value="" style="edgeStyle=orthogonalEdgeStyle;rounded=0;orthogonalLoop=1;jettySize=auto;html=1;fontSize=18;" edge="1" parent="1" source="vRdFM8mdRWxYOnKqkBIo-10" target="vRdFM8mdRWxYOnKqkBIo-11">
          <mxGeometry relative="1" as="geometry" />
        </mxCell>
        <mxCell id="vRdFM8mdRWxYOnKqkBIo-10" value="&lt;h1&gt;&lt;font style=&quot;font-size: 12px&quot;&gt;Fill Customer info&lt;/font&gt;&lt;br&gt;&lt;/h1&gt;&lt;p&gt;Click on &lt;font style=&quot;font-size: 18px&quot;&gt;Pay Now&lt;/font&gt;&lt;span style=&quot;white-space: pre&quot;&gt;&lt;/span&gt;&lt;br&gt;&lt;/p&gt;" style="text;html=1;strokeColor=none;fillColor=none;spacing=5;spacingTop=-20;whiteSpace=wrap;overflow=hidden;rounded=0;" vertex="1" parent="1">
          <mxGeometry x="509" y="115" width="151" height="95" as="geometry" />
        </mxCell>
        <mxCell id="vRdFM8mdRWxYOnKqkBIo-13" style="edgeStyle=orthogonalEdgeStyle;rounded=0;orthogonalLoop=1;jettySize=auto;html=1;exitX=0.5;exitY=1;exitDx=0;exitDy=0;fontSize=18;" edge="1" parent="1" source="vRdFM8mdRWxYOnKqkBIo-11">
          <mxGeometry relative="1" as="geometry">
            <mxPoint x="585" y="430" as="targetPoint" />
          </mxGeometry>
        </mxCell>
        <mxCell id="vRdFM8mdRWxYOnKqkBIo-15" value="" style="edgeStyle=orthogonalEdgeStyle;rounded=0;orthogonalLoop=1;jettySize=auto;html=1;fontSize=18;" edge="1" parent="1" source="vRdFM8mdRWxYOnKqkBIo-11" target="vRdFM8mdRWxYOnKqkBIo-14">
          <mxGeometry relative="1" as="geometry" />
        </mxCell>
        <mxCell id="vRdFM8mdRWxYOnKqkBIo-19" value="" style="edgeStyle=orthogonalEdgeStyle;rounded=0;orthogonalLoop=1;jettySize=auto;html=1;fontSize=24;" edge="1" parent="1" source="vRdFM8mdRWxYOnKqkBIo-11" target="vRdFM8mdRWxYOnKqkBIo-18">
          <mxGeometry relative="1" as="geometry" />
        </mxCell>
        <mxCell id="vRdFM8mdRWxYOnKqkBIo-11" value="&lt;div&gt;2 options to Pay&lt;/div&gt;&lt;div&gt;&lt;br&gt;&lt;/div&gt;" style="rhombus;whiteSpace=wrap;html=1;fontSize=18;" vertex="1" parent="1">
          <mxGeometry x="491.75" y="260" width="185.5" height="165" as="geometry" />
        </mxCell>
        <mxCell id="vRdFM8mdRWxYOnKqkBIo-17" value="" style="edgeStyle=orthogonalEdgeStyle;rounded=0;orthogonalLoop=1;jettySize=auto;html=1;fontSize=12;" edge="1" parent="1" source="vRdFM8mdRWxYOnKqkBIo-14" target="vRdFM8mdRWxYOnKqkBIo-16">
          <mxGeometry relative="1" as="geometry" />
        </mxCell>
        <mxCell id="vRdFM8mdRWxYOnKqkBIo-14" value="1&#39;st Option &lt;font size=&quot;3&quot;&gt;(by STRIPE &amp;amp; PAYPAL)&lt;/font&gt;" style="rhombus;whiteSpace=wrap;html=1;fontSize=18;" vertex="1" parent="1">
          <mxGeometry x="780" y="280" width="160" height="165" as="geometry" />
        </mxCell>
        <mxCell id="vRdFM8mdRWxYOnKqkBIo-16" value="Capturing &lt;font style=&quot;font-size: 24px&quot;&gt;Card&lt;/font&gt; details on the MEMBERPRESS page only" style="whiteSpace=wrap;html=1;fontSize=18;" vertex="1" parent="1">
          <mxGeometry x="790" y="518.75" width="160" height="141.25" as="geometry" />
        </mxCell>
        <mxCell id="vRdFM8mdRWxYOnKqkBIo-22" value="" style="edgeStyle=orthogonalEdgeStyle;rounded=0;orthogonalLoop=1;jettySize=auto;html=1;fontSize=24;" edge="1" parent="1" source="vRdFM8mdRWxYOnKqkBIo-18" target="vRdFM8mdRWxYOnKqkBIo-21">
          <mxGeometry relative="1" as="geometry" />
        </mxCell>
        <mxCell id="vRdFM8mdRWxYOnKqkBIo-18" value="&lt;div&gt;2&#39;nd Option&lt;br&gt;by&lt;br&gt;PAYSTACK&lt;br&gt;&lt;/div&gt;&lt;div&gt;&lt;br&gt;&lt;/div&gt;" style="rhombus;whiteSpace=wrap;html=1;fontSize=18;" vertex="1" parent="1">
          <mxGeometry x="226.25" y="260" width="185.5" height="165" as="geometry" />
        </mxCell>
        <mxCell id="vRdFM8mdRWxYOnKqkBIo-24" value="" style="edgeStyle=orthogonalEdgeStyle;rounded=0;orthogonalLoop=1;jettySize=auto;html=1;fontSize=24;" edge="1" parent="1" source="vRdFM8mdRWxYOnKqkBIo-21" target="vRdFM8mdRWxYOnKqkBIo-23">
          <mxGeometry relative="1" as="geometry" />
        </mxCell>
        <mxCell id="vRdFM8mdRWxYOnKqkBIo-21" value="Control and URL redirecting to the Payment page URL ex: Paystack " style="whiteSpace=wrap;html=1;fontSize=18;" vertex="1" parent="1">
          <mxGeometry x="223.5" y="520" width="191" height="160" as="geometry" />
        </mxCell>
        <mxCell id="vRdFM8mdRWxYOnKqkBIo-23" value="After successful validation control redirect&amp;nbsp; CALL -BACK&amp;nbsp; to the merchant page" style="rhombus;whiteSpace=wrap;html=1;fontSize=18;" vertex="1" parent="1">
          <mxGeometry x="163.5" y="730" width="311" height="280" as="geometry" />
        </mxCell>
      </root>
    </mxGraphModel>
  </diagram>
</mxfile>
